<?xml version="1.0" encoding="UTF-8"?><svg id="Layer_2" xmlns="http://www.w3.org/2000/svg" viewBox="0 0 28.08 42.68"><defs><style>.cls-1{opacity:.68;}.cls-1,.cls-2,.cls-3{fill:#1d1d1b;}.cls-4{letter-spacing:0em;}.cls-5{opacity:.36;}.cls-6{letter-spacing:.01em;}.cls-7{letter-spacing:.01em;}.cls-2{font-family:AcuminProExtraCond-Semibold, 'Acumin Pro ExtraCondensed';font-size:13.91px;font-weight:600;}.cls-8{opacity:.1;}.cls-9{letter-spacing:0em;}</style></defs><g id="Layer_1-2"><path class="cls-3" d="M14,0l-.08.08-.08-.08L.56,13.46l.31.51.62.6h0s11.97,11.76,11.97,11.76l.66.65,6.45-6.57,6.64-6.68.3-.52L14,0ZM13.94,2.19l5.73,5.56-4.87,4.86-.06-6.11h-.77s-.77.01-.77.01l.06,6.11-4.95-4.77,5.63-5.67ZM15.75,13.88c.66-.68,1.33-1.35,1.91-1.92l.05-.05c.6-.61,1.23-1.24,1.85-1.87.42-.43.81-.83,1.16-1.2l2.34,2.3-8.2,8.18-.04-4.49c.31-.32.62-.64.93-.95ZM7.28,8.97c1.04,1.05,2.14,2.11,3.12,3.05.9.87,1.92,1.85,2.88,2.82l.04,4.49L4.98,11.31l2.3-2.34ZM2.65,13.52c.08-.09.18-.2.3-.32.3-.31.64-.64.89-.85.13.15.26.28.34.36,1.11,1.08,2.23,2.14,3.47,3.33l.06.06c1.86,1.78,3.78,3.61,5.63,5.45l.02,2.4L2.65,13.52ZM25.42,13.32l-10.52,10.62-.02-2.4c.39-.4.78-.8,1.17-1.2,1.51-1.53,3.05-3.07,4.42-4.42l.05-.05c1.1-1.09,2.24-2.22,3.35-3.34l.03-.03c.07-.08.19-.2.31-.34.36.31.91.83,1.21,1.15Z"/><g class="cls-8"><path class="cls-3" d="M24.21,12.17c-.12.14-.23.26-.31.34l-.03.03c-1.11,1.12-2.25,2.25-3.35,3.34l-.05.05c-1.37,1.35-2.91,2.88-4.42,4.42-.39.4-.79.8-1.17,1.2l.02,2.4,10.52-10.62c-.3-.32-.85-.84-1.21-1.15Z"/><path class="cls-3" d="M7.71,16.1l-.06-.06c-1.24-1.18-2.36-2.25-3.47-3.33-.08-.08-.21-.21-.34-.36-.24.22-.58.55-.89.85-.12.12-.22.23-.3.32l10.71,10.43-.02-2.4c-1.84-1.84-3.77-3.68-5.63-5.45Z"/></g><g class="cls-5"><path class="cls-3" d="M10.39,12.02c-.98-.94-2.07-2-3.12-3.05l-2.3,2.34,8.34,8.03-.04-4.49c-.97-.97-1.98-1.95-2.88-2.82Z"/><path class="cls-3" d="M19.55,10.05c-.62.63-1.24,1.26-1.85,1.87l-.05.05c-.57.57-1.24,1.24-1.91,1.92-.31.32-.62.63-.93.95l.04,4.49,8.2-8.18-2.34-2.3c-.36.37-.74.77-1.16,1.2Z"/></g><polygon class="cls-1" points="19.67 7.75 13.94 2.19 8.31 7.85 13.26 12.63 13.2 6.52 13.97 6.51 14.75 6.51 14.8 12.61 19.67 7.75"/><text class="cls-2" transform="translate(0 39.05)"><tspan class="cls-7" x="0" y="0">C</tspan><tspan class="cls-4" x="4.9" y="0">A</tspan><tspan class="cls-6" x="9.93" y="0">R</tspan><tspan class="cls-9" x="15.14" y="0">A</tspan><tspan x="20.17" y="0">ID</tspan></text></g></svg>