<?xml version="1.0" encoding="UTF-8"?><svg id="Layer_2" xmlns="http://www.w3.org/2000/svg" viewBox="0 0 64 64"><defs><style>.cls-1{letter-spacing:0em;}.cls-2,.cls-3,.cls-4{fill:#fff;}.cls-5{fill:#1c1c1c;}.cls-6{opacity:.36;}.cls-7{letter-spacing:.01em;}.cls-8{letter-spacing:.01em;}.cls-3{font-family:AcuminProExtraCond-Semibold, 'Acumin Pro ExtraCondensed';font-size:13.91px;font-weight:600;}.cls-9{opacity:.1;}.cls-10{letter-spacing:0em;}.cls-4{opacity:.68;}</style></defs><g id="Layer_1-2"><rect class="cls-5" width="64" height="64"/><path class="cls-2" d="M31.96,10.66l-.08.08-.08-.08-13.28,13.46.31.51.62.6h0s11.97,11.76,11.97,11.76l.66.65,6.45-6.57,6.64-6.68.3-.52-13.52-13.21ZM31.9,12.85l5.73,5.56-4.87,4.86-.06-6.11h-.77s-.77.01-.77.01l.06,6.11-4.95-4.77,5.63-5.67ZM33.71,24.54c.66-.68,1.33-1.35,1.91-1.92l.05-.05c.6-.61,1.23-1.24,1.85-1.87.42-.43.81-.83,1.16-1.2l2.34,2.3-8.2,8.18-.04-4.49c.31-.32.62-.64.93-.95ZM25.24,19.63c1.04,1.05,2.14,2.11,3.12,3.05.9.87,1.92,1.85,2.88,2.82l.04,4.49-8.34-8.03,2.3-2.34ZM20.62,24.18c.08-.09.18-.2.3-.32.3-.31.64-.64.89-.85.13.15.26.28.34.36,1.11,1.08,2.23,2.14,3.47,3.33l.06.06c1.86,1.78,3.78,3.61,5.63,5.45l.02,2.4-10.71-10.43ZM43.39,23.98l-10.52,10.62-.02-2.4c.39-.4.78-.8,1.17-1.2,1.51-1.53,3.05-3.07,4.42-4.42l.05-.05c1.1-1.09,2.24-2.22,3.35-3.34l.03-.03c.07-.08.19-.2.31-.34.36.31.91.83,1.21,1.15Z"/><g class="cls-9"><path class="cls-2" d="M42.18,22.83c-.12.14-.23.26-.31.34l-.03.03c-1.11,1.12-2.25,2.25-3.35,3.34l-.05.05c-1.37,1.35-2.91,2.88-4.42,4.42-.39.4-.79.8-1.17,1.2l.02,2.4,10.52-10.62c-.3-.32-.85-.84-1.21-1.15Z"/><path class="cls-2" d="M25.68,26.76l-.06-.06c-1.24-1.18-2.36-2.25-3.47-3.33-.08-.08-.21-.21-.34-.36-.24.22-.58.55-.89.85-.12.12-.22.23-.3.32l10.71,10.43-.02-2.4c-1.84-1.84-3.77-3.68-5.63-5.45Z"/></g><g class="cls-6"><path class="cls-2" d="M28.36,22.68c-.98-.94-2.07-2-3.12-3.05l-2.3,2.34,8.34,8.03-.04-4.49c-.97-.97-1.98-1.95-2.88-2.82Z"/><path class="cls-2" d="M37.52,20.71c-.62.63-1.24,1.26-1.85,1.87l-.05.05c-.57.57-1.24,1.24-1.91,1.92-.31.32-.62.63-.93.95l.04,4.49,8.2-8.18-2.34-2.3c-.36.37-.74.77-1.16,1.2Z"/></g><polygon class="cls-4" points="37.63 18.41 31.9 12.85 26.27 18.51 31.22 23.29 31.17 17.18 31.94 17.17 32.71 17.17 32.77 23.27 37.63 18.41"/><text class="cls-3" transform="translate(17.96 49.71)"><tspan class="cls-8" x="0" y="0">C</tspan><tspan class="cls-1" x="4.9" y="0">A</tspan><tspan class="cls-7" x="9.93" y="0">R</tspan><tspan class="cls-10" x="15.14" y="0">A</tspan><tspan x="20.17" y="0">ID</tspan></text></g></svg>