<?xml version="1.0" encoding="UTF-8"?><svg id="Layer_2" xmlns="http://www.w3.org/2000/svg" viewBox="0 0 54.6 64"><defs><style>.cls-1{opacity:.68;}.cls-1,.cls-2{fill:#1d1d1b;}.cls-3{opacity:.14;}.cls-4{opacity:.38;}</style></defs><g id="Layer_1-2"><path class="cls-2" d="M8.14,58.27v.67c0,2.24-.39,5.06-4.11,5.06-3.36,0-4.03-2.21-4.03-5v-9.45c0-2.94,1.31-4.72,4.08-4.72,3.33,0,3.97,2.26,3.97,4.81v.78h-2.52v-1.06c0-1.34-.28-2.26-1.48-2.26s-1.48.87-1.48,2.29v9.81c0,1.48.31,2.54,1.54,2.54s1.48-1.01,1.48-2.54v-.92h2.54Z"/><path class="cls-2" d="M12.47,58.35l-.75,5.4h-2.54l3.05-18.68h3.55l3.16,18.68h-2.63l-.84-5.4h-2.99ZM15.15,56.03c-.5-3.55-.95-6.65-1.15-8.61h-.08c-.08,1.51-.7,5.59-1.12,8.61h2.35Z"/><path class="cls-2" d="M20.38,45.07h3.69c2.82,0,4.36,1.17,4.36,4.42v.75c0,2.74-1.03,3.61-1.9,3.91,1.15.5,1.73,1.31,1.73,3.83,0,1.59-.03,4.61.17,5.76h-2.4c-.25-1.15-.2-4.25-.2-5.59,0-2.32-.34-2.91-2.07-2.91h-.87v8.5h-2.52v-18.68ZM22.9,53.15h.89c1.62,0,2.15-.75,2.15-2.77v-.73c0-1.57-.39-2.49-2.12-2.49h-.92v5.98Z"/><path class="cls-2" d="M33.05,58.35l-.75,5.4h-2.54l3.05-18.68h3.55l3.16,18.68h-2.63l-.84-5.4h-2.99ZM35.73,56.03c-.5-3.55-.95-6.65-1.15-8.61h-.08c-.08,1.51-.7,5.59-1.12,8.61h2.35Z"/><path class="cls-2" d="M43.47,45.07v18.68h-2.52v-18.68h2.52Z"/><path class="cls-2" d="M46.1,45.07h3.75c4,0,4.75,2.24,4.75,5.48v7.27c0,2.85-.48,5.93-4.81,5.93h-3.69v-18.68ZM48.62,61.6h1.01c2.04,0,2.43-1.23,2.43-3.38v-7.88c0-1.9-.34-3.1-2.43-3.1h-1.01v14.37Z"/><path class="cls-2" d="M27.3,0L6.33,20.97l20.97,20.97,20.97-20.97L27.3,0ZM41.23,17.17l-12.78,12.78v-8.7l8.43-8.43,4.35,4.35ZM26.15,37.55L9.58,20.97l2.18-2.18,14.4,14.4v4.35ZM26.15,29.95l-12.78-12.78,4.35-4.35,8.43,8.43v8.7ZM26.15,9.22v8.79l-6.81-6.81,7.96-7.96,7.96,7.96-6.81,6.81v-8.79h-2.29ZM28.45,33.2l14.4-14.4,2.18,2.18-16.58,16.58v-4.35Z"/><g class="cls-3"><polygon class="cls-2" points="26.15 33.2 26.15 37.55 9.58 20.97 11.75 18.79 26.15 33.2"/><polygon class="cls-2" points="45.03 20.97 28.45 37.55 28.45 33.2 42.85 18.79 45.03 20.97"/></g><g class="cls-4"><polygon class="cls-2" points="26.15 21.25 26.15 29.95 13.37 17.17 17.72 12.82 26.15 21.25"/><polygon class="cls-2" points="41.23 17.17 28.45 29.95 28.45 21.25 36.88 12.82 41.23 17.17"/></g><polygon class="cls-1" points="28.45 18.01 28.45 9.22 26.15 9.22 26.15 18.01 19.34 11.2 27.3 3.24 35.26 11.2 28.45 18.01"/></g></svg>