<?xml version="1.0" encoding="UTF-8"?><svg id="Layer_2" xmlns="http://www.w3.org/2000/svg" viewBox="0 0 64 64"><defs><style>.cls-1{opacity:.68;}.cls-1,.cls-2{fill:#1d1d1b;}.cls-3{opacity:.14;}.cls-4{opacity:.38;}</style></defs><g id="Layer_1-2"><path class="cls-2" d="M32,0L0,32l32,32,32-32L32,0ZM53.26,26.21l-19.51,19.51v-13.28l12.87-12.87,6.64,6.64ZM30.25,57.3L4.95,32l3.32-3.32,21.98,21.98v6.64ZM30.25,45.71L10.74,26.21l6.64-6.64,12.87,12.87v13.28ZM30.25,14.07v13.42l-10.4-10.39,12.15-12.15,12.14,12.15-10.39,10.39v-13.42h-3.5ZM33.75,50.66l21.98-21.98,3.32,3.32-25.3,25.3v-6.64Z"/><g class="cls-3"><polygon class="cls-2" points="30.25 50.66 30.25 57.3 4.95 32 8.27 28.68 30.25 50.66"/><polygon class="cls-2" points="59.05 32 33.75 57.3 33.75 50.66 55.73 28.68 59.05 32"/></g><g class="cls-4"><polygon class="cls-2" points="30.25 32.44 30.25 45.71 10.74 26.21 17.38 19.57 30.25 32.44"/><polygon class="cls-2" points="53.26 26.21 33.75 45.71 33.75 32.44 46.62 19.57 53.26 26.21"/></g><polygon class="cls-1" points="33.75 27.49 33.75 14.07 30.25 14.07 30.25 27.49 19.85 17.09 32 4.95 44.15 17.09 33.75 27.49"/></g></svg>