<?xml version="1.0" encoding="UTF-8"?><svg id="Layer_2" xmlns="http://www.w3.org/2000/svg" viewBox="0 0 100 40.76"><defs><style>.cls-1{opacity:.68;}.cls-1,.cls-2{fill:#1d1d1b;}.cls-3{opacity:.14;}.cls-4{opacity:.38;}</style></defs><g id="Layer_1-2"><path class="cls-2" d="M54.83,24.13v.65c0,2.17-.38,4.92-4,4.92-3.26,0-3.91-2.15-3.91-4.87v-9.19c0-2.85,1.28-4.59,3.97-4.59,3.23,0,3.86,2.2,3.86,4.67v.76h-2.45v-1.03c0-1.3-.27-2.2-1.44-2.2s-1.44.84-1.44,2.23v9.54c0,1.44.3,2.47,1.49,2.47s1.44-.98,1.44-2.47v-.9h2.47Z"/><path class="cls-2" d="M59.04,24.21l-.73,5.25h-2.47l2.96-18.16h3.45l3.07,18.16h-2.55l-.82-5.25h-2.91ZM61.65,21.96c-.49-3.45-.92-6.47-1.11-8.37h-.08c-.08,1.47-.68,5.44-1.09,8.37h2.28Z"/><path class="cls-2" d="M66.73,11.3h3.59c2.75,0,4.24,1.14,4.24,4.29v.73c0,2.66-1.01,3.51-1.85,3.8,1.11.49,1.68,1.28,1.68,3.72,0,1.55-.03,4.48.16,5.6h-2.34c-.24-1.11-.19-4.13-.19-5.44,0-2.26-.33-2.83-2.01-2.83h-.84v8.26h-2.45V11.3ZM69.18,19.16h.87c1.58,0,2.09-.73,2.09-2.69v-.71c0-1.52-.38-2.42-2.07-2.42h-.9v5.82Z"/><path class="cls-2" d="M79.05,24.21l-.73,5.25h-2.47l2.96-18.16h3.45l3.07,18.16h-2.55l-.82-5.25h-2.91ZM81.65,21.96c-.49-3.45-.92-6.47-1.11-8.37h-.08c-.08,1.47-.68,5.44-1.09,8.37h2.28Z"/><path class="cls-2" d="M89.18,11.3v18.16h-2.45V11.3h2.45Z"/><path class="cls-2" d="M91.74,11.3h3.64c3.89,0,4.62,2.17,4.62,5.33v7.07c0,2.77-.46,5.76-4.67,5.76h-3.59V11.3ZM94.18,27.37h.98c1.98,0,2.36-1.2,2.36-3.29v-7.66c0-1.85-.33-3.02-2.36-3.02h-.98v13.97Z"/><path class="cls-2" d="M20.38,0L0,20.38l20.38,20.38,20.38-20.38L20.38,0ZM33.92,16.69l-12.43,12.43v-8.46l8.2-8.2,4.23,4.23ZM19.27,36.5L3.15,20.38l2.11-2.11,14,14v4.23ZM19.27,29.12l-12.43-12.43,4.23-4.23,8.2,8.2v8.46ZM19.27,8.96v8.55l-6.62-6.62,7.74-7.74,7.74,7.74-6.62,6.62v-8.55h-2.23ZM21.5,32.27l14-14,2.11,2.11-16.12,16.12v-4.23Z"/><g class="cls-3"><polygon class="cls-2" points="19.27 32.27 19.27 36.5 3.15 20.38 5.27 18.27 19.27 32.27"/><polygon class="cls-2" points="37.61 20.38 21.5 36.5 21.5 32.27 35.5 18.27 37.61 20.38"/></g><g class="cls-4"><polygon class="cls-2" points="19.27 20.66 19.27 29.12 6.84 16.69 11.07 12.46 19.27 20.66"/><polygon class="cls-2" points="33.92 16.69 21.5 29.12 21.5 20.66 29.69 12.46 33.92 16.69"/></g><polygon class="cls-1" points="21.5 17.51 21.5 8.96 19.27 8.96 19.27 17.51 12.65 10.89 20.38 3.15 28.12 10.89 21.5 17.51"/></g></svg>