<?xml version="1.0" encoding="UTF-8"?><svg id="Layer_2" xmlns="http://www.w3.org/2000/svg" viewBox="0 0 128 128"><defs><style>.cls-1{opacity:.14;}.cls-2{fill:#fff;}.cls-3,.cls-4{fill:#552159;}.cls-4{opacity:.68;}.cls-5{opacity:.38;}</style></defs><g id="Layer_1-2"><rect class="cls-2" width="128" height="128"/><path class="cls-3" d="M45.76,90.54v.64c0,2.13-.37,4.82-3.91,4.82-3.19,0-3.83-2.1-3.83-4.76v-8.99c0-2.79,1.25-4.5,3.88-4.5,3.17,0,3.78,2.16,3.78,4.58v.75h-2.39v-1.01c0-1.28-.27-2.16-1.41-2.16s-1.41.82-1.41,2.18v9.34c0,1.41.29,2.42,1.46,2.42s1.41-.96,1.41-2.42v-.88h2.42Z"/><path class="cls-3" d="M49.88,90.62l-.72,5.14h-2.42l2.9-17.78h3.38l3.01,17.78h-2.5l-.8-5.14h-2.85ZM52.44,88.42c-.48-3.38-.9-6.33-1.09-8.2h-.08c-.08,1.44-.67,5.32-1.06,8.2h2.24Z"/><path class="cls-3" d="M57.41,77.98h3.51c2.69,0,4.15,1.12,4.15,4.2v.72c0,2.61-.98,3.43-1.81,3.73,1.09.48,1.65,1.25,1.65,3.65,0,1.52-.03,4.39.16,5.48h-2.29c-.24-1.09-.19-4.04-.19-5.32,0-2.21-.32-2.77-1.97-2.77h-.82v8.09h-2.39v-17.78ZM59.81,85.68h.85c1.54,0,2.05-.72,2.05-2.63v-.69c0-1.49-.37-2.37-2.02-2.37h-.88v5.69Z"/><path class="cls-3" d="M69.47,90.62l-.72,5.14h-2.42l2.9-17.78h3.38l3.01,17.78h-2.5l-.8-5.14h-2.85ZM72.02,88.42c-.48-3.38-.9-6.33-1.09-8.2h-.08c-.08,1.44-.67,5.32-1.06,8.2h2.24Z"/><path class="cls-3" d="M79.39,77.98v17.78h-2.39v-17.78h2.39Z"/><path class="cls-3" d="M81.89,77.98h3.57c3.81,0,4.52,2.13,4.52,5.22v6.92c0,2.71-.45,5.64-4.58,5.64h-3.51v-17.78ZM84.29,93.71h.96c1.94,0,2.32-1.17,2.32-3.22v-7.5c0-1.81-.32-2.95-2.32-2.95h-.96v13.68Z"/><path class="cls-3" d="M64,32l-19.96,19.96,19.96,19.96,19.96-19.96-19.96-19.96ZM77.26,48.34l-12.17,12.17v-8.28l8.03-8.03,4.14,4.14ZM62.91,67.74l-15.78-15.78,2.07-2.07,13.71,13.71v4.14ZM62.91,60.51l-12.17-12.17,4.14-4.14,8.03,8.03v8.28ZM62.91,40.77v8.37l-6.48-6.48,7.57-7.57,7.57,7.57-6.48,6.48v-8.37h-2.18ZM65.09,63.59l13.71-13.71,2.07,2.07-15.78,15.78v-4.14Z"/><g class="cls-1"><polygon class="cls-3" points="62.91 63.59 62.91 67.74 47.13 51.96 49.2 49.89 62.91 63.59"/><polygon class="cls-3" points="80.87 51.96 65.09 67.74 65.09 63.59 78.8 49.89 80.87 51.96"/></g><g class="cls-5"><polygon class="cls-3" points="62.91 52.23 62.91 60.51 50.74 48.34 54.88 44.2 62.91 52.23"/><polygon class="cls-3" points="77.26 48.34 65.09 60.51 65.09 52.23 73.12 44.2 77.26 48.34"/></g><polygon class="cls-4" points="65.09 49.14 65.09 40.77 62.91 40.77 62.91 49.14 56.43 42.66 64 35.09 71.57 42.66 65.09 49.14"/></g></svg>