<?xml version="1.0" encoding="UTF-8"?><svg id="Layer_2" xmlns="http://www.w3.org/2000/svg" viewBox="0 0 128 128"><defs><style>.cls-1{opacity:.14;}.cls-2{opacity:.68;}.cls-2,.cls-3{fill:#f6f6f6;}.cls-4{fill:#552159;}.cls-5{opacity:.38;}</style></defs><g id="Layer_1-2"><rect class="cls-4" width="128" height="128"/><path class="cls-3" d="M64,32l-32,32,32,32,32-32-32-32ZM85.26,58.21l-19.51,19.51v-13.28l12.87-12.87,6.64,6.64ZM62.25,89.3l-25.3-25.3,3.32-3.32,21.98,21.98v6.64ZM62.25,77.71l-19.51-19.51,6.64-6.64,12.87,12.87v13.28ZM62.25,46.07v13.42l-10.4-10.39,12.15-12.15,12.14,12.15-10.39,10.39v-13.42h-3.5ZM65.75,82.66l21.98-21.98,3.32,3.32-25.3,25.3v-6.64Z"/><g class="cls-1"><polygon class="cls-3" points="62.25 82.66 62.25 89.3 36.95 64 40.27 60.68 62.25 82.66"/><polygon class="cls-3" points="91.05 64 65.75 89.3 65.75 82.66 87.73 60.68 91.05 64"/></g><g class="cls-5"><polygon class="cls-3" points="62.25 64.44 62.25 77.71 42.74 58.21 49.38 51.57 62.25 64.44"/><polygon class="cls-3" points="85.26 58.21 65.75 77.71 65.75 64.44 78.62 51.57 85.26 58.21"/></g><polygon class="cls-2" points="65.75 59.49 65.75 46.07 62.25 46.07 62.25 59.49 51.85 49.09 64 36.95 76.15 49.09 65.75 59.49"/></g></svg>