<?xml version="1.0" encoding="UTF-8"?><svg id="Layer_2" xmlns="http://www.w3.org/2000/svg" viewBox="0 0 51.97 64"><defs><style>.cls-1{opacity:.14;}.cls-2{opacity:.68;}.cls-2,.cls-3{fill:#f6f6f6;}.cls-4{opacity:.38;}</style></defs><g id="Layer_1-2"><path class="cls-3" d="M7.74,58.54v.64c0,2.13-.37,4.82-3.91,4.82-3.19,0-3.83-2.1-3.83-4.76v-8.99c0-2.79,1.25-4.5,3.88-4.5,3.17,0,3.78,2.16,3.78,4.58v.75h-2.39v-1.01c0-1.28-.27-2.16-1.41-2.16s-1.41.82-1.41,2.18v9.34c0,1.41.29,2.42,1.46,2.42s1.41-.96,1.41-2.42v-.88h2.42Z"/><path class="cls-3" d="M11.87,58.62l-.72,5.14h-2.42l2.9-17.78h3.38l3.01,17.78h-2.5l-.8-5.14h-2.85ZM14.42,56.42c-.48-3.38-.9-6.33-1.09-8.2h-.08c-.08,1.44-.67,5.32-1.06,8.2h2.24Z"/><path class="cls-3" d="M19.4,45.98h3.51c2.69,0,4.15,1.12,4.15,4.2v.72c0,2.61-.98,3.43-1.81,3.73,1.09.48,1.65,1.25,1.65,3.65,0,1.52-.03,4.39.16,5.48h-2.29c-.24-1.09-.19-4.04-.19-5.32,0-2.21-.32-2.77-1.97-2.77h-.82v8.09h-2.39v-17.78ZM21.79,53.68h.85c1.54,0,2.05-.72,2.05-2.63v-.69c0-1.49-.37-2.37-2.02-2.37h-.88v5.69Z"/><path class="cls-3" d="M31.45,58.62l-.72,5.14h-2.42l2.9-17.78h3.38l3.01,17.78h-2.5l-.8-5.14h-2.85ZM34.01,56.42c-.48-3.38-.9-6.33-1.09-8.2h-.08c-.08,1.44-.67,5.32-1.06,8.2h2.24Z"/><path class="cls-3" d="M41.38,45.98v17.78h-2.39v-17.78h2.39Z"/><path class="cls-3" d="M43.88,45.98h3.57c3.81,0,4.52,2.13,4.52,5.22v6.92c0,2.71-.45,5.64-4.58,5.64h-3.51v-17.78ZM46.27,61.71h.96c1.94,0,2.32-1.17,2.32-3.22v-7.5c0-1.81-.32-2.95-2.32-2.95h-.96v13.68Z"/><path class="cls-3" d="M25.98,0L6.03,19.96l19.96,19.96,19.96-19.96L25.98,0ZM39.24,16.34l-12.17,12.17v-8.28l8.03-8.03,4.14,4.14ZM24.89,35.74l-15.78-15.78,2.07-2.07,13.71,13.71v4.14ZM24.89,28.51l-12.17-12.17,4.14-4.14,8.03,8.03v8.28ZM24.89,8.77v8.37l-6.48-6.48,7.57-7.57,7.57,7.57-6.48,6.48v-8.37h-2.18ZM27.08,31.59l13.71-13.71,2.07,2.07-15.78,15.78v-4.14Z"/><g class="cls-1"><polygon class="cls-3" points="24.89 31.59 24.89 35.74 9.11 19.96 11.18 17.89 24.89 31.59"/><polygon class="cls-3" points="42.85 19.96 27.08 35.74 27.08 31.59 40.78 17.89 42.85 19.96"/></g><g class="cls-4"><polygon class="cls-3" points="24.89 20.23 24.89 28.51 12.73 16.34 16.87 12.2 24.89 20.23"/><polygon class="cls-3" points="39.24 16.34 27.08 28.51 27.08 20.23 35.1 12.2 39.24 16.34"/></g><polygon class="cls-2" points="27.08 17.14 27.08 8.77 24.89 8.77 24.89 17.14 18.41 10.66 25.98 3.09 33.56 10.66 27.08 17.14"/></g></svg>