<?xml version="1.0" encoding="UTF-8"?><svg id="Layer_2" xmlns="http://www.w3.org/2000/svg" viewBox="0 0 128 128"><defs><style>.cls-1{opacity:.14;}.cls-2{opacity:.68;}.cls-2,.cls-3{fill:#f6f6f6;}.cls-4{fill:#552159;}.cls-5{opacity:.38;}</style></defs><g id="Layer_1-2"><rect class="cls-4" width="128" height="128"/><path class="cls-3" d="M68.83,67.75v.65c0,2.17-.38,4.92-4,4.92-3.26,0-3.91-2.15-3.91-4.87v-9.19c0-2.85,1.28-4.59,3.97-4.59,3.23,0,3.86,2.2,3.86,4.67v.76h-2.45v-1.03c0-1.3-.27-2.2-1.44-2.2s-1.44.84-1.44,2.23v9.54c0,1.44.3,2.47,1.49,2.47s1.44-.98,1.44-2.47v-.9h2.47Z"/><path class="cls-3" d="M73.04,67.83l-.73,5.25h-2.47l2.96-18.16h3.45l3.07,18.16h-2.55l-.82-5.25h-2.91ZM75.65,65.58c-.49-3.45-.92-6.47-1.11-8.37h-.08c-.08,1.47-.68,5.44-1.09,8.37h2.28Z"/><path class="cls-3" d="M80.73,54.92h3.59c2.75,0,4.24,1.14,4.24,4.29v.73c0,2.66-1.01,3.51-1.85,3.8,1.11.49,1.68,1.28,1.68,3.72,0,1.55-.03,4.48.16,5.6h-2.34c-.24-1.11-.19-4.13-.19-5.44,0-2.26-.33-2.83-2.01-2.83h-.84v8.26h-2.45v-18.16ZM83.18,62.78h.87c1.58,0,2.09-.73,2.09-2.69v-.71c0-1.52-.38-2.42-2.07-2.42h-.9v5.82Z"/><path class="cls-3" d="M93.05,67.83l-.73,5.25h-2.47l2.96-18.16h3.45l3.07,18.16h-2.55l-.82-5.25h-2.91ZM95.65,65.58c-.49-3.45-.92-6.47-1.11-8.37h-.08c-.08,1.47-.68,5.44-1.09,8.37h2.28Z"/><path class="cls-3" d="M103.18,54.92v18.16h-2.45v-18.16h2.45Z"/><path class="cls-3" d="M105.74,54.92h3.64c3.89,0,4.62,2.17,4.62,5.33v7.07c0,2.77-.46,5.76-4.67,5.76h-3.59v-18.16ZM108.18,70.98h.98c1.98,0,2.36-1.2,2.36-3.29v-7.66c0-1.85-.33-3.02-2.36-3.02h-.98v13.97Z"/><path class="cls-3" d="M34.38,43.62l-20.38,20.38,20.38,20.38,20.38-20.38-20.38-20.38ZM47.92,60.31l-12.43,12.43v-8.46l8.2-8.2,4.23,4.23ZM33.27,80.12l-16.12-16.12,2.11-2.11,14,14v4.23ZM33.27,72.74l-12.43-12.43,4.23-4.23,8.2,8.2v8.46ZM33.27,52.58v8.55l-6.62-6.62,7.74-7.74,7.74,7.74-6.62,6.62v-8.55h-2.23ZM35.5,75.89l14-14,2.11,2.11-16.12,16.12v-4.23Z"/><g class="cls-1"><polygon class="cls-3" points="33.27 75.89 33.27 80.12 17.15 64 19.27 61.89 33.27 75.89"/><polygon class="cls-3" points="51.61 64 35.5 80.12 35.5 75.89 49.5 61.89 51.61 64"/></g><g class="cls-5"><polygon class="cls-3" points="33.27 64.28 33.27 72.74 20.84 60.31 25.07 56.08 33.27 64.28"/><polygon class="cls-3" points="47.92 60.31 35.5 72.74 35.5 64.28 43.69 56.08 47.92 60.31"/></g><polygon class="cls-2" points="35.5 61.13 35.5 52.58 33.27 52.58 33.27 61.13 26.65 54.51 34.38 46.77 42.12 54.51 35.5 61.13"/></g></svg>